<svg width="25" height="11" viewBox="0 0 25 11" fill="none" xmlns="http://www.w3.org/2000/svg">
    <g clip-path="url(#clip0_1_122)">
        <path d="M0.567239 10.2474C1.03679 9.47851 1.51024 8.73369 1.96968 7.97877C2.42912 7.22384 2.87846 6.48292 3.3379 5.728C3.348 5.71399 3.35811 5.69998 3.36822 5.68597C3.64732 5.26958 3.63261 5.40808 3.36553 4.98107C2.47242 3.59116 1.57932 2.20126 0.686214 0.811354C0.640282 0.756914 0.604458 0.688465 0.568634 0.620015C0.976324 0.615921 1.3739 0.625835 1.75748 0.625644C3.61309 0.622378 5.4586 0.633122 7.31422 0.629858C8.31633 0.628577 9.17624 0.97204 9.92425 1.61821C10.2683 1.90903 10.5315 2.31192 10.811 2.66267C11.1543 3.10209 11.4937 3.51739 11.827 3.97082C11.9048 4.06959 11.985 4.10612 12.1095 4.11073C13.7558 4.19082 15.3921 4.28492 17.0244 4.3549C19.4076 4.47663 21.7908 4.59837 24.174 4.7201C24.6237 4.74633 24.9475 5.06516 24.9275 5.47676C24.9215 5.89845 24.6128 6.20827 24.1709 6.23027C22.2344 6.34562 20.3119 6.47107 18.3895 6.59652C16.3184 6.72126 14.2613 6.85612 12.1903 6.98087C11.9071 6.98957 11.7157 7.10714 11.5641 7.31729C11.166 7.83955 10.7679 8.36182 10.3659 8.85996C9.58835 9.79011 8.59193 10.2854 7.36886 10.2977C5.69998 10.3079 4.0412 10.3041 2.36841 10.2901C1.81212 10.2935 1.27994 10.293 0.723647 10.2964C0.67151 10.2801 0.623278 10.2879 0.567239 10.2474Z"
              fill="#FFA239"/>
    </g>
    <defs>
        <clipPath id="clip0_1_122">
            <rect width="25" height="11" fill=""/>
        </clipPath>
    </defs>
</svg>
